Coordinates
version=1
nRows=12
nColumns=34
inDegrees=yes

Units are S.I. units (second, meters, Newtons, ...)
If the header above contains a line with 'inDegrees', this indicates whether rotational values are in degrees (yes) or radians (no).

endheader
time	pelvis_tilt	pelvis_list	pelvis_rotation	pelvis_tx	pelvis_ty	pelvis_tz	hip_flexion_r	hip_adduction_r	hip_rotation_r	knee_angle_r	ankle_angle_r	subtalar_angle_r	mtp_angle_r	hip_flexion_l	hip_adduction_l	hip_rotation_l	knee_angle_l	ankle_angle_l	subtalar_angle_l	mtp_angle_l	lumbar_extension	lumbar_bending	lumbar_rotation	arm_flex_r	arm_add_r	arm_rot_r	elbow_flex_r	pro_sup_r	arm_flex_l	arm_add_l	arm_rot_l	elbow_flex_l	pro_sup_l
      0.00000000	      2.37417036	      1.22584827	      1.61517022	      0.75097476	      1.15113520	     -0.10563528	     -8.23897242	     -6.95239826	     -8.13643230	      1.09065579	      0.46198243	    -15.02130640	      0.00000000	     -6.79436039	     -2.50758381	     -7.76420493	      0.00000000	     -0.41334516	    -15.86409894	      0.00000000	     -6.66950438	      3.50781634	      1.54985654	     -0.63837641	     -7.94174260	      4.22162605	     18.32355592	     71.85015881	    125.18551224	    -42.66532908	     37.97831570	     62.32005403	     71.00104186
      0.01666670	     -1.65431948	      0.31797749	      0.19359659	      0.74525667	      1.14192482	     -0.10210452	     -3.40118638	     -6.15265136	     -8.89843696	      1.48141112	      2.82510683	    -10.24068988	      0.00000000	     -1.84423938	     -3.36500548	    -10.79725732	      0.00000000	      0.60609960	    -13.35937966	      0.00000000	     -3.24559388	      3.35959909	     -1.91659784	      2.39410835	     -7.89715525	      0.23554428	     21.33253192	     74.32406288	    139.74471850	    -42.00498834	     47.43536219	     49.51086795	     70.88182311
      0.03333330	     -3.08590908	      0.39277902	     -0.50686139	      0.75351757	      1.14140876	     -0.10488178	     -2.12502883	     -6.25077152	     -8.60081783	      0.95312654	      2.35695941	    -10.60091894	      0.00000000	     -0.30179935	     -3.07635311	    -12.92336983	      0.00000000	      1.75765689	    -11.07129612	      0.00000000	     -0.93452680	      3.10392099	     -1.42754634	      1.84132611	     -7.34961693	     -9.66747489	     22.62641652	     76.07443060	    141.35846958	    -40.65894120	     47.88607182	     50.82861559	     70.99515091
      0.05000000	     -3.91322842	      0.52876487	     -0.70481692	      0.75350198	      1.13946805	     -0.10446046	     -1.31844561	     -6.44623448	     -9.25055424	      0.56300571	      2.88524655	     -9.52312189	      0.00000000	      0.50234230	     -2.90883469	    -13.98494334	      0.00000000	      2.34412485	    -10.07163383	      0.00000000	      0.66946176	      2.49484801	      0.02536192	     -0.24339559	     -6.03247821	    -17.50072630	     25.43305187	     79.37778779	    140.59551507	    -36.63371261	     46.30423266	     50.12123410	     71.95110638
      0.06666670	     -4.67769371	      0.60705369	     -0.91977807	      0.75274595	      1.13794554	     -0.10442975	     -0.63301492	     -6.51384764	     -8.82065209	      0.12822073	      2.55963736	    -10.42229848	      0.00000000	      1.22968024	     -2.81250330	    -14.57103279	      0.00000000	      2.99396565	     -9.08785960	      0.00000000	      2.03540455	      2.48636976	      0.83484884	     -0.92803057	     -5.27366106	    -22.34531046	     25.80326125	     84.57473333	    140.02055250	    -35.43242452	     46.65292414	     50.17549623	     73.67651417
      0.08333330	     -4.95893757	      0.49240837	     -1.39100507	      0.75250117	      1.13710399	     -0.10417272	     -0.27028913	     -6.40202634	     -8.57438256	      0.00000000	      2.91163402	     -9.82602878	      0.00000000	      1.40327246	     -2.90360477	    -14.97243364	      0.00000000	      3.08090932	     -9.17757780	      0.00000000	      2.56799062	      2.98590873	      1.89883771	     -1.23863114	     -5.41411788	    -22.52597722	     25.56605043	     85.13556622	    140.21683408	    -34.98294474	     47.43461554	     49.22859326	     73.85544179
      0.10000000	     -4.97399473	      0.51115761	     -1.51917689	      0.75164315	      1.13664266	     -0.10403759	     -0.26852546	     -6.41333479	     -8.58546424	      0.00000000	      3.20129040	     -9.72171728	      0.00000000	      1.29057250	     -2.90149577	    -15.03380666	      0.00000000	      3.53429286	     -8.76639424	      0.00000000	      2.48037309	      2.99350808	      2.44243275	     -1.16657935	     -5.20368193	    -24.01763460	     25.03373549	     88.67451873	    142.43447726	    -33.67838639	     49.82074267	     45.92998407	     74.46477031
      0.11666670	     -5.26581460	      0.40980955	     -1.47161895	      0.75200476	      1.13593516	     -0.10449768	     -0.01589807	     -6.30687782	     -8.69338048	      0.00000000	      3.21821793	     -9.73420490	      0.00000000	      1.50854849	     -3.01430296	    -14.77761844	      0.00000000	      3.93807196	     -8.54973516	      0.00000000	      3.00446799	      3.42676359	      1.95449456	     -1.12350650	     -5.26467064	    -24.25860432	     25.10028216	     89.38247181	    143.74373379	    -33.28126380	     50.01872279	     44.58065844	     74.47170380
      0.13333330	     -5.34056321	      0.35418539	     -1.52852438	      0.75153017	      1.13563699	     -0.10486246	      0.05311743	     -6.24415845	     -8.49095395	      0.00000000	      3.51531732	     -9.67721356	      0.00000000	      1.50156310	     -3.08030875	    -14.47157233	      0.00000000	      4.23090841	     -8.39508280	      0.00000000	      2.90785129	      3.68364606	      1.17902277	     -0.52538704	     -5.34181973	    -25.85405943	     24.81641635	    100.35608001	    147.35897875	    -33.17874436	     55.46511860	     42.35048564	     74.56258610
      0.15000000	     -5.18831823	      0.21886112	     -1.64347895	      0.75182283	      1.13562244	     -0.10487637	     -0.14922071	     -6.12033020	     -8.45596475	      0.00000000	      3.48394098	     -9.55319603	      0.00000000	      1.26484116	     -3.23369185	    -14.32687614	      0.00000000	      4.10716619	     -8.58013084	      0.00000000	      2.62402740	      3.95618103	      1.02330010	     -0.59315405	     -5.43717245	    -25.95901209	     24.79885150	    100.71346189	    149.13847633	    -32.68394682	     53.87006489	     43.17152013	     74.32192271
      0.16666670	     -5.19202674	     -0.03904920	     -1.72942531	      0.75151777	      1.13575417	     -0.10516349	     -0.14247245	     -5.83469874	     -8.24026601	      0.00000000	      3.61435488	     -9.44761301	      0.00000000	      1.20947625	     -3.52656998	    -14.06904296	      0.00000000	      4.00273422	     -8.54463929	      0.00000000	      2.76036598	      4.39159212	      0.92460220	     -0.90230874	     -5.59387621	    -26.00568791	     24.81567819	    100.86783484	    150.08100790	    -32.26680496	     53.24551552	     43.41483774	     74.23520896
      0.18333330	     -5.14642079	     -0.12733118	     -1.67723941	      0.75181131	      1.13582582	     -0.10531934	     -0.19971688	     -5.74424951	     -8.46645118	      0.00000000	      3.80003908	     -9.03961331	      0.00000000	      1.13529247	     -3.63449693	    -13.74895326	      0.00000000	      3.77832064	     -9.08245169	      0.00000000	      2.60212919	      4.52619487	      1.36020797	     -1.85360156	     -5.70309252	    -26.51493273	     25.94861877	    104.41805515	    149.43867276	    -30.52981121	     47.13111344	     43.29144439	     73.13337350
